<svg width="394" height="96" viewBox="0 0 394 96" fill="none" xmlns="http://www.w3.org/2000/svg">
<mask id="mask0_530_358" style="mask-type:alpha" maskUnits="userSpaceOnUse" x="0" y="-1" width="394" height="97">
<rect y="-0.000488281" width="394" height="96" fill="#1B1B22"/>
</mask>
<g mask="url(#mask0_530_358)">
<rect x="-4" y="-1" width="413" height="97" fill="#161620"/>
<path d="M-6.15625 41H-6.35625V41.2H-6.15625V41ZM-6.15625 0.999999V0.799999H-6.35625V0.999999H-6.15625ZM14.7227 2.44531L14.6287 2.62186L14.6297 2.62238L14.7227 2.44531ZM18.7656 6.29297L18.5903 6.38914L18.5906 6.38973L18.7656 6.29297ZM19.1758 15.8828L19.0003 15.7869L18.9994 15.7885L19.1758 15.8828ZM16.793 18.5391L16.683 18.372L16.682 18.3727L16.793 18.5391ZM13.6094 19.9844L13.5568 19.7914L13.4094 19.8316V19.9844H13.6094ZM13.6094 20.375H13.4094V20.5626L13.5966 20.5746L13.6094 20.375ZM17.3008 21.6641L17.194 21.8332L17.3008 21.6641ZM20.2891 35.7852L20.4629 35.8841L20.2891 35.7852ZM15.9727 39.5938L15.8866 39.4132L15.9727 39.5938ZM-1.3125 36.7031H-1.5125V36.9031H-1.3125V36.7031ZM15.0352 34.8672L15.1707 35.0143L15.1708 35.0142L15.0352 34.8672ZM16.0117 26.625L15.8399 26.7273L15.8404 26.7282L16.0117 26.625ZM13.0625 23.8516L12.966 24.0267L12.9674 24.0275L13.0625 23.8516ZM-1.3125 22.7969V22.5969H-1.5125V22.7969H-1.3125ZM-1.3125 18.5781H-1.5125V18.7781H-1.3125V18.5781ZM11.6172 17.7188L11.5301 17.5387L11.5293 17.5391L11.6172 17.7188ZM14.4297 15.2969L14.2639 15.185L14.263 15.1864L14.4297 15.2969ZM13.6484 7.15234L13.5063 7.29302L13.507 7.29377L13.6484 7.15234ZM-1.3125 5.29687V5.09687H-1.5125V5.29687H-1.3125ZM-5.95625 41V0.999999H-6.35625V41H-5.95625ZM-6.15625 1.2H7.82812V0.799999H-6.15625V1.2ZM7.82812 1.2C10.593 1.2 12.8562 1.67824 14.6287 2.62185L14.8166 2.26877C12.9693 1.2853 10.6361 0.799999 7.82812 0.799999V1.2ZM14.6297 2.62238C16.4087 3.55671 17.7258 4.81277 18.5903 6.38913L18.941 6.1968C18.0346 4.544 16.6564 3.23496 14.8156 2.26825L14.6297 2.62238ZM18.5906 6.38973C19.4585 7.95968 19.8938 9.70337 19.8938 11.625H20.2938C20.2938 9.64037 19.8436 7.82938 18.9407 6.1962L18.5906 6.38973ZM19.8938 11.625C19.8938 13.3214 19.5916 14.705 19.0003 15.7869L19.3513 15.9787C19.9839 14.8211 20.2938 13.3661 20.2938 11.625H19.8938ZM18.9994 15.7885C18.415 16.881 17.6428 17.7406 16.683 18.372L16.9029 18.7061C17.9223 18.0355 18.7386 17.1242 19.3521 15.9771L18.9994 15.7885ZM16.682 18.3727C15.7236 19.0116 14.6821 19.4845 13.5568 19.7914L13.662 20.1773C14.8283 19.8592 15.9092 19.3686 16.9039 18.7055L16.682 18.3727ZM13.4094 19.9844V20.375H13.8094V19.9844H13.4094ZM13.5966 20.5746C14.7813 20.6502 15.9799 21.0663 17.194 21.8332L17.4076 21.495C16.1477 20.6993 14.8854 20.256 13.6221 20.1754L13.5966 20.5746ZM17.194 21.8332C18.3994 22.5945 19.4131 23.6885 20.2326 25.1227L20.5799 24.9242C19.7328 23.4417 18.6761 22.2961 17.4076 21.495L17.194 21.8332ZM20.2326 25.1227C21.0448 26.544 21.4562 28.2917 21.4562 30.375H21.8563C21.8563 28.2396 21.4344 26.4196 20.5799 24.9242L20.2326 25.1227ZM21.4562 30.375C21.4562 32.3487 21.008 34.1174 20.1152 35.6862L20.4629 35.8841C21.393 34.2497 21.8563 32.4117 21.8563 30.375H21.4562ZM20.1152 35.6862C19.2275 37.2462 17.8227 38.49 15.8866 39.4132L16.0587 39.7743C18.0549 38.8225 19.5277 37.5273 20.4629 35.8841L20.1152 35.6862ZM15.8866 39.4132C13.9566 40.3335 11.4304 40.8 8.29688 40.8V41.2C11.4654 41.2 14.0565 40.729 16.0587 39.7743L15.8866 39.4132ZM8.29688 40.8H-6.15625V41.2H8.29688V40.8ZM-1.3125 36.9031H8.29688V36.5031H-1.3125V36.9031ZM8.29688 36.9031C11.4767 36.9031 13.7863 36.29 15.1707 35.0143L14.8996 34.7201C13.6277 35.8923 11.4452 36.5031 8.29688 36.5031V36.9031ZM15.1708 35.0142C16.5512 33.741 17.2469 32.191 17.2469 30.375H16.8469C16.8469 32.0746 16.2014 33.5194 14.8996 34.7202L15.1708 35.0142ZM17.2469 30.375C17.2469 28.9849 16.8922 27.6992 16.183 26.5218L15.8404 26.7282C16.5115 27.8425 16.8469 29.0567 16.8469 30.375H17.2469ZM16.1836 26.5227C15.4736 25.3305 14.4629 24.3816 13.1576 23.6756L12.9674 24.0275C14.2142 24.7018 15.1696 25.6018 15.8399 26.7273L16.1836 26.5227ZM13.159 23.6764C11.8481 22.954 10.3031 22.5969 8.53125 22.5969V22.9969C10.2489 22.9969 11.7248 23.3428 12.966 24.0267L13.159 23.6764ZM8.53125 22.5969H-1.3125V22.9969H8.53125V22.5969ZM-1.5125 22.7969V36.7031H-1.1125V22.7969H-1.5125ZM-1.3125 18.7781H7.67188V18.3781H-1.3125V18.7781ZM7.67188 18.7781C9.15703 18.7781 10.5027 18.4862 11.705 17.8984L11.5293 17.5391C10.3879 18.0971 9.10339 18.3781 7.67188 18.3781V18.7781ZM11.7042 17.8988C12.9197 17.3111 13.8854 16.4805 14.5964 15.4073L14.263 15.1864C13.5938 16.1965 12.6845 16.9805 11.5301 17.5387L11.7042 17.8988ZM14.5955 15.4088C15.3235 14.3302 15.6844 13.0662 15.6844 11.625H15.2844C15.2844 12.9963 14.9421 14.1802 14.2639 15.185L14.5955 15.4088ZM15.6844 11.625C15.6844 9.81507 15.052 8.27304 13.7899 7.01092L13.507 7.29377C14.6928 8.47957 15.2844 9.91931 15.2844 11.625H15.6844ZM13.7906 7.01167C12.5133 5.72078 10.5102 5.09687 7.82812 5.09687V5.49687C10.4586 5.49687 12.3357 6.10994 13.5063 7.29301L13.7906 7.01167ZM7.82812 5.09687H-1.3125V5.49687H7.82812V5.09687ZM-1.5125 5.29687V18.5781H-1.1125V5.29687H-1.5125ZM69.1052 41H68.9052V41.2H69.1052V41ZM69.1052 0.999999V0.799999H68.9052V0.999999H69.1052ZM73.949 0.999999H74.149V0.799999H73.949V0.999999ZM73.949 36.7031H73.749V36.9031H73.949V36.7031ZM92.5427 36.7031H92.7427V36.5031H92.5427V36.7031ZM92.5427 41V41.2H92.7427V41H92.5427ZM69.3052 41V0.999999H68.9052V41H69.3052ZM69.1052 1.2H73.949V0.799999H69.1052V1.2ZM73.749 0.999999V36.7031H74.149V0.999999H73.749ZM73.949 36.9031H92.5427V36.5031H73.949V36.9031ZM92.3427 36.7031V41H92.7427V36.7031H92.3427ZM92.5427 40.8H69.1052V41.2H92.5427V40.8ZM143.698 41V41.2H143.839L143.886 41.0669L143.698 41ZM138.62 41L138.432 40.9311L138.333 41.2H138.62V41ZM153.307 0.999999V0.799999H153.168L153.119 0.931062L153.307 0.999999ZM158.307 0.999999L158.495 0.931062L158.447 0.799999H158.307V0.999999ZM172.995 41V41.2H173.281L173.182 40.9311L172.995 41ZM167.917 41L167.728 41.0669L167.775 41.2H167.917V41ZM155.963 7.32812L156.152 7.26122L156.105 7.12812H155.963V7.32812ZM155.651 7.32812V7.12812H155.51L155.462 7.26122L155.651 7.32812ZM145.573 25.375V25.175H145.373V25.375H145.573ZM166.042 25.375H166.242V25.175H166.042V25.375ZM166.042 29.6719V29.8719H166.242V29.6719H166.042ZM145.573 29.6719H145.373V29.8719H145.573V29.6719ZM143.698 40.8H138.62V41.2H143.698V40.8ZM138.807 41.0689L153.495 1.06894L153.119 0.931062L138.432 40.9311L138.807 41.0689ZM153.307 1.2H158.307V0.799999H153.307V1.2ZM158.119 1.06894L172.807 41.0689L173.182 40.9311L158.495 0.931062L158.119 1.06894ZM172.995 40.8H167.917V41.2H172.995V40.8ZM168.105 40.9331L156.152 7.26122L155.775 7.39503L167.728 41.0669L168.105 40.9331ZM155.963 7.12812H155.651V7.52812H155.963V7.12812ZM155.462 7.26122L143.509 40.9331L143.886 41.0669L155.839 7.39503L155.462 7.26122ZM145.573 25.575H166.042V25.175H145.573V25.575ZM165.842 25.375V29.6719H166.242V25.375H165.842ZM166.042 29.4719H145.573V29.8719H166.042V29.4719ZM145.773 29.6719V25.375H145.373V29.6719H145.773ZM249.023 13.5V13.7H249.261L249.22 13.4651L249.023 13.5ZM244.179 13.5L243.983 13.5403L244.016 13.7H244.179V13.5ZM242.675 9.82812L242.509 9.93907L242.51 9.94047L242.675 9.82812ZM240.097 7.17188L239.979 7.33364L239.982 7.33533L240.097 7.17188ZM236.757 5.53125L236.7 5.72293L236.757 5.53125ZM226.347 6.82031L226.241 6.65052L226.241 6.65084L226.347 6.82031ZM221.679 12.2305L221.499 12.143L221.499 12.1438L221.679 12.2305ZM221.679 29.7695L221.499 29.8562L221.499 29.857L221.679 29.7695ZM226.347 35.1797L226.241 35.3492L226.241 35.3495L226.347 35.1797ZM236.757 36.4688L236.7 36.2771L236.757 36.4688ZM240.097 34.8477L240.213 35.0104L240.214 35.0101L240.097 34.8477ZM242.675 32.1719L242.509 32.0605L242.509 32.0609L242.675 32.1719ZM244.179 28.5V28.3H244.016L243.983 28.4594L244.179 28.5ZM249.023 28.5L249.22 28.5351L249.262 28.3H249.023V28.5ZM247.031 33.9883L246.859 33.8858L247.031 33.9883ZM243.437 38.1094L243.56 38.2669L243.561 38.2662L243.437 38.1094ZM238.613 40.668L238.55 40.478L238.55 40.4781L238.613 40.668ZM223.827 39.0469L223.721 39.2163L223.827 39.0469ZM217.558 31.9375L217.737 31.8487L217.558 31.9375ZM217.558 10.0625L217.379 9.97367L217.558 10.0625ZM238.613 1.33203L238.55 1.52191L238.55 1.52204L238.613 1.33203ZM243.437 3.91016L243.313 4.06703L243.314 4.06772L243.437 3.91016ZM247.031 8.01172L246.859 8.11421L246.859 8.11482L247.031 8.01172ZM249.023 13.3H244.179V13.7H249.023V13.3ZM244.375 13.4597C244.084 12.0437 243.573 10.7946 242.841 9.71577L242.51 9.94047C243.209 10.971 243.701 12.1699 243.983 13.5403L244.375 13.4597ZM242.841 9.71718C242.125 8.64241 241.248 7.73906 240.212 7.00842L239.982 7.33533C240.977 8.03698 241.819 8.90446 242.509 9.93906L242.841 9.71718ZM240.215 7.01013C239.193 6.26722 238.059 5.71043 236.814 5.33957L236.7 5.72293C237.903 6.08123 238.996 6.61819 239.979 7.33362L240.215 7.01013ZM236.814 5.33957C235.571 4.96925 234.276 4.78437 232.929 4.78437V5.18437C234.239 5.18437 235.495 5.36408 236.7 5.72293L236.814 5.33957ZM232.929 4.78437C230.472 4.78437 228.241 5.40589 226.241 6.65052L226.453 6.9901C228.386 5.78681 230.543 5.18437 232.929 5.18437V4.78437ZM226.241 6.65084C224.251 7.89753 222.672 9.73164 221.499 12.143L221.859 12.3179C223.004 9.96367 224.536 8.19101 226.453 6.98978L226.241 6.65084ZM221.499 12.1438C220.337 14.5607 219.76 17.5154 219.76 21H220.16C220.16 17.5575 220.73 14.6659 221.859 12.3171L221.499 12.1438ZM219.76 21C219.76 24.4846 220.337 27.4393 221.499 29.8562L221.859 29.6829C220.73 27.3341 220.16 24.4425 220.16 21H219.76ZM221.499 29.857C222.672 32.2684 224.251 34.1025 226.241 35.3492L226.453 35.0102C224.536 33.809 223.004 32.0363 221.859 29.6821L221.499 29.857ZM226.241 35.3495C228.241 36.5941 230.472 37.2156 232.929 37.2156V36.8156C230.543 36.8156 228.386 36.2132 226.453 35.0099L226.241 35.3495ZM232.929 37.2156C234.276 37.2156 235.571 37.0307 236.814 36.6604L236.7 36.2771C235.495 36.6359 234.239 36.8156 232.929 36.8156V37.2156ZM236.814 36.6604C238.059 36.2898 239.192 35.7399 240.213 35.0104L239.981 34.6849C238.997 35.3877 237.904 35.9186 236.7 36.2771L236.814 36.6604ZM240.214 35.0101C241.249 34.2667 242.125 33.3573 242.841 32.2828L242.509 32.0609C241.819 33.0959 240.976 33.9703 239.98 34.6852L240.214 35.0101ZM242.841 32.2833C243.573 31.1921 244.084 29.9437 244.375 28.5406L243.983 28.4594C243.701 29.8167 243.209 31.0162 242.509 32.0605L242.841 32.2833ZM244.179 28.7H249.023V28.3H244.179V28.7ZM248.826 28.4649C248.465 30.4878 247.809 32.294 246.859 33.8858L247.202 34.0908C248.179 32.4534 248.851 30.6007 249.22 28.5351L248.826 28.4649ZM246.859 33.8858C245.907 35.4801 244.725 36.8352 243.313 37.9525L243.561 38.2662C245.013 37.1179 246.227 35.7256 247.202 34.0908L246.859 33.8858ZM243.314 37.9518C241.9 39.0569 240.313 39.899 238.55 40.478L238.675 40.858C240.48 40.2651 242.109 39.4014 243.56 38.2669L243.314 37.9518ZM238.55 40.4781C236.801 41.0568 234.928 41.3469 232.929 41.3469V41.7469C234.967 41.7469 236.883 41.451 238.675 40.8578L238.55 40.4781ZM232.929 41.3469C229.552 41.3469 226.555 40.5224 223.934 38.8775L223.721 39.2163C226.412 40.9047 229.483 41.7469 232.929 41.7469V41.3469ZM223.934 38.8775C221.312 37.2322 219.246 34.8917 217.737 31.8487L217.379 32.0263C218.917 35.1291 221.031 37.5282 223.721 39.2163L223.934 38.8775ZM217.737 31.8487C216.23 28.809 215.473 25.1949 215.473 21H215.073C215.073 25.2426 215.839 28.9202 217.379 32.0263L217.737 31.8487ZM215.473 21C215.473 16.8051 216.23 13.191 217.737 10.1513L217.379 9.97367C215.839 13.0798 215.073 16.7574 215.073 21H215.473ZM217.737 10.1513C219.246 7.10828 221.312 4.76777 223.934 3.12254L223.721 2.78371C221.031 4.47182 218.917 6.87088 217.379 9.97367L217.737 10.1513ZM223.934 3.12254C226.555 1.4776 229.552 0.653123 232.929 0.653123V0.253123C229.483 0.253123 226.412 1.09531 223.721 2.78371L223.934 3.12254ZM232.929 0.653123C234.928 0.653123 236.801 0.943202 238.55 1.52191L238.675 1.14215C236.883 0.548983 234.967 0.253123 232.929 0.253123V0.653123ZM238.55 1.52204C240.312 2.10085 241.899 2.94921 243.313 4.06702L243.561 3.75329C242.11 2.60548 240.481 1.73508 238.675 1.14202L238.55 1.52204ZM243.314 4.06772C244.726 5.17178 245.907 6.52008 246.859 8.11421L247.202 7.90923C246.227 6.27418 245.012 4.88811 243.56 3.75259L243.314 4.06772ZM246.859 8.11482C247.809 9.69308 248.465 11.4989 248.826 13.5349L249.22 13.4651C248.851 11.3865 248.179 9.53348 247.202 7.90861L246.859 8.11482ZM296.34 41H296.14V41.2H296.34V41ZM296.34 0.999999V0.799999H296.14V0.999999H296.34ZM301.184 0.999999H301.384V0.799999H301.184V0.999999ZM301.184 20.8438H300.984V21.0437H301.184V20.8438ZM301.652 20.8438V21.0437H301.741L301.801 20.978L301.652 20.8438ZM319.621 0.999999V0.799999H319.532L319.473 0.865755L319.621 0.999999ZM325.949 0.999999L326.096 1.13626L326.409 0.799999H325.949V0.999999ZM309.152 19.0469L309.006 18.9106L308.891 19.0343L308.994 19.1684L309.152 19.0469ZM325.949 41V41.2H326.354L326.108 40.8785L325.949 41ZM320.09 41L319.93 41.1198L319.99 41.2H320.09V41ZM306.184 22.4062L306.344 22.2865L306.197 22.0902L306.034 22.2734L306.184 22.4062ZM301.184 28.0312L301.034 27.8984L300.984 27.9552V28.0312H301.184ZM301.184 41V41.2H301.384V41H301.184ZM296.54 41V0.999999H296.14V41H296.54ZM296.34 1.2H301.184V0.799999H296.34V1.2ZM300.984 0.999999V20.8438H301.384V0.999999H300.984ZM301.184 21.0437H301.652V20.6437H301.184V21.0437ZM301.801 20.978L319.769 1.13424L319.473 0.865755L301.504 20.7095L301.801 20.978ZM319.621 1.2H325.949V0.799999H319.621V1.2ZM325.803 0.863739L309.006 18.9106L309.299 19.1831L326.096 1.13626L325.803 0.863739ZM308.994 19.1684L325.79 41.1215L326.108 40.8785L309.311 18.9253L308.994 19.1684ZM325.949 40.8H320.09V41.2H325.949V40.8ZM320.25 40.8802L306.344 22.2865L306.023 22.526L319.93 41.1198L320.25 40.8802ZM306.034 22.2734L301.034 27.8984L301.333 28.1641L306.333 22.5391L306.034 22.2734ZM300.984 28.0312V41H301.384V28.0312H300.984ZM301.184 40.8H296.34V41.2H301.184V40.8ZM-6.15625 51V50.8H-6.35625V51H-6.15625ZM-0.374999 51L-0.189911 50.9242L-0.240769 50.8H-0.374999V51ZM13.2188 84.2031L13.0337 84.2789L13.0845 84.4031H13.2188V84.2031ZM13.6875 84.2031V84.4031H13.8217L13.8726 84.2789L13.6875 84.2031ZM27.2812 51V50.8H27.147L27.0962 50.9242L27.2812 51ZM33.0625 51H33.2625V50.8H33.0625V51ZM33.0625 91V91.2H33.2625V91H33.0625ZM28.5312 91H28.3312V91.2H28.5312V91ZM28.5312 60.6094H28.7313V60.4094H28.5312V60.6094ZM28.1406 60.6094V60.4094H28.0066L27.9557 60.5333L28.1406 60.6094ZM15.6406 91V91.2H15.7746L15.8256 91.0761L15.6406 91ZM11.2656 91L11.0807 91.0761L11.1316 91.2H11.2656V91ZM-1.23437 60.6094L-1.04941 60.5333L-1.10038 60.4094H-1.23437V60.6094ZM-1.625 60.6094V60.4094H-1.825V60.6094H-1.625ZM-1.625 91V91.2H-1.425V91H-1.625ZM-6.15625 91H-6.35625V91.2H-6.15625V91ZM-6.15625 51.2H-0.374999V50.8H-6.15625V51.2ZM-0.560088 51.0758L13.0337 84.2789L13.4038 84.1273L-0.189911 50.9242L-0.560088 51.0758ZM13.2188 84.4031H13.6875V84.0031H13.2188V84.4031ZM13.8726 84.2789L27.4663 51.0758L27.0962 50.9242L13.5024 84.1273L13.8726 84.2789ZM27.2812 51.2H33.0625V50.8H27.2812V51.2ZM32.8625 51V91H33.2625V51H32.8625ZM33.0625 90.8H28.5312V91.2H33.0625V90.8ZM28.7313 91V60.6094H28.3312V91H28.7313ZM28.5312 60.4094H28.1406V60.8094H28.5312V60.4094ZM27.9557 60.5333L15.4557 90.9239L15.8256 91.0761L28.3256 60.6855L27.9557 60.5333ZM15.6406 90.8H11.2656V91.2H15.6406V90.8ZM11.4506 90.9239L-1.04941 60.5333L-1.41934 60.6855L11.0807 91.0761L11.4506 90.9239ZM-1.23437 60.4094H-1.625V60.8094H-1.23437V60.4094ZM-1.825 60.6094V91H-1.425V60.6094H-1.825ZM-1.625 90.8H-6.15625V91.2H-1.625V90.8ZM-5.95625 91V51H-6.35625V91H-5.95625ZM83.905 91V91.2H84.0463L84.0935 91.0669L83.905 91ZM78.8269 91L78.6392 90.9311L78.5404 91.2H78.8269V91ZM93.5144 51V50.8H93.3748L93.3267 50.9311L93.5144 51ZM98.5144 51L98.7022 50.9311L98.654 50.8H98.5144V51ZM113.202 91V91.2H113.488L113.39 90.9311L113.202 91ZM108.124 91L107.935 91.0669L107.983 91.2H108.124V91ZM96.1707 57.3281L96.3591 57.2612L96.3119 57.1281H96.1707V57.3281ZM95.8582 57.3281V57.1281H95.7169L95.6697 57.2612L95.8582 57.3281ZM85.78 75.375V75.175H85.58V75.375H85.78ZM106.249 75.375H106.449V75.175H106.249V75.375ZM106.249 79.6719V79.8719H106.449V79.6719H106.249ZM85.78 79.6719H85.58V79.8719H85.78V79.6719ZM83.905 90.8H78.8269V91.2H83.905V90.8ZM79.0147 91.0689L93.7022 51.0689L93.3267 50.9311L78.6392 90.9311L79.0147 91.0689ZM93.5144 51.2H98.5144V50.8H93.5144V51.2ZM98.3267 51.0689L113.014 91.0689L113.39 90.9311L98.7022 50.9311L98.3267 51.0689ZM113.202 90.8H108.124V91.2H113.202V90.8ZM108.312 90.9331L96.3591 57.2612L95.9822 57.395L107.935 91.0669L108.312 90.9331ZM96.1707 57.1281H95.8582V57.5281H96.1707V57.1281ZM95.6697 57.2612L83.7166 90.9331L84.0935 91.0669L96.0466 57.395L95.6697 57.2612ZM85.78 75.575H106.249V75.175H85.78V75.575ZM106.049 75.375V79.6719H106.449V75.375H106.049ZM106.249 79.4719H85.78V79.8719H106.249V79.4719ZM85.98 79.6719V75.375H85.58V79.6719H85.98ZM158.922 91H158.722V91.2H158.922V91ZM158.922 51V50.8H158.722V51H158.922ZM180.133 52.6016L180.039 52.7781L180.04 52.7786L180.133 52.6016ZM184.586 56.957L184.409 57.0495V57.0495L184.586 56.957ZM184.586 69.5352L184.41 69.4417L184.586 69.5352ZM180.153 73.832L180.245 74.0097L180.246 74.0093L180.153 73.832ZM161.579 75.375H161.379V75.575H161.579V75.375ZM161.579 71V70.8H161.379V71H161.579ZM177.516 70.0625L177.43 69.8819L177.43 69.8822L177.516 70.0625ZM180.368 67.4062L180.19 67.3144L180.19 67.3152L180.368 67.4062ZM177.497 56.293L177.406 56.4715L177.408 56.4722L177.497 56.293ZM163.766 55.2969V55.0969H163.566V55.2969H163.766ZM163.766 91V91.2H163.966V91H163.766ZM177.751 73.0312L177.926 72.9352L177.869 72.8312H177.751V73.0312ZM187.594 91V91.2H187.932L187.77 90.9039L187.594 91ZM181.969 91L181.793 91.0949L181.85 91.2H181.969V91ZM172.282 73.0312V72.8312H171.947L172.106 73.1262L172.282 73.0312ZM159.122 91V51H158.722V91H159.122ZM158.922 51.2H172.438V50.8H158.922V51.2ZM172.438 51.2C175.542 51.2 178.072 51.7305 180.039 52.7781L180.227 52.425C178.184 51.3372 175.584 50.8 172.438 50.8V51.2ZM180.04 52.7786C182.013 53.816 183.466 55.2398 184.409 57.0495L184.764 56.8646C183.78 54.9764 182.264 53.4965 180.226 52.4246L180.04 52.7786ZM184.409 57.0495C185.356 58.8663 185.832 60.9368 185.832 63.2656H186.232C186.232 60.8809 185.744 58.7456 184.764 56.8646L184.409 57.0495ZM185.832 63.2656C185.832 65.5945 185.356 67.6515 184.41 69.4417L184.763 69.6286C185.744 67.773 186.232 65.6503 186.232 63.2656H185.832ZM184.41 69.4417C183.467 71.2256 182.02 72.6301 180.06 73.6548L180.246 74.0093C182.27 72.9506 183.779 71.4906 184.763 69.6286L184.41 69.4417ZM180.061 73.6543C178.106 74.6638 175.595 75.175 172.516 75.175V75.575C175.635 75.575 178.215 75.0575 180.245 74.0097L180.061 73.6543ZM172.516 75.175H161.579V75.575H172.516V75.175ZM161.779 75.375V71H161.379V75.375H161.779ZM161.579 71.2H172.36V70.8H161.579V71.2ZM172.36 71.2C174.512 71.2 176.264 70.8855 177.603 70.2428L177.43 69.8822C176.164 70.4895 174.479 70.8 172.36 70.8V71.2ZM177.602 70.2431C178.951 69.6018 179.937 68.6874 180.546 67.4973L180.19 67.3152C179.626 68.4167 178.711 69.2731 177.43 69.8819L177.602 70.2431ZM180.545 67.4981C181.162 66.3051 181.466 64.892 181.466 63.2656H181.066C181.066 64.8424 180.771 66.1897 180.19 67.3144L180.545 67.4981ZM181.466 63.2656C181.466 61.639 181.162 60.2076 180.547 58.977L180.189 59.1558C180.771 60.3211 181.066 61.6891 181.066 63.2656H181.466ZM180.547 58.977C179.926 57.7363 178.936 56.7821 177.585 56.1137L177.408 56.4722C178.688 57.1059 179.611 58.0006 180.189 59.1558L180.547 58.977ZM177.587 56.1144C176.234 55.4312 174.461 55.0969 172.282 55.0969V55.4969C174.425 55.4969 176.129 55.8266 177.406 56.4715L177.587 56.1144ZM172.282 55.0969H163.766V55.4969H172.282V55.0969ZM163.566 55.2969V91H163.966V55.2969H163.566ZM163.766 90.8H158.922V91.2H163.766V90.8ZM177.575 73.1273L187.419 91.0961L187.77 90.9039L177.926 72.9352L177.575 73.1273ZM187.594 90.8H181.969V91.2H187.594V90.8ZM182.145 90.9051L172.458 72.9363L172.106 73.1262L181.793 91.0949L182.145 90.9051ZM172.282 73.2312H177.751V72.8312H172.282V73.2312ZM233.593 91H233.393V91.2H233.593V91ZM233.593 51V50.8H233.393V51H233.593ZM238.437 51H238.637V50.8H238.437V51ZM238.437 70.8438H238.237V71.0437H238.437V70.8438ZM238.906 70.8438V71.0437H238.994L239.054 70.978L238.906 70.8438ZM256.874 51V50.8H256.786L256.726 50.8658L256.874 51ZM263.202 51L263.349 51.1363L263.662 50.8H263.202V51ZM246.406 69.0469L246.259 68.9106L246.144 69.0343L246.247 69.1684L246.406 69.0469ZM263.202 91V91.2H263.607L263.361 90.8785L263.202 91ZM257.343 91L257.183 91.1198L257.243 91.2H257.343V91ZM243.437 72.4062L243.597 72.2865L243.45 72.0902L243.287 72.2734L243.437 72.4062ZM238.437 78.0312L238.287 77.8984L238.237 77.9552V78.0312H238.437ZM238.437 91V91.2H238.637V91H238.437ZM233.793 91V51H233.393V91H233.793ZM233.593 51.2H238.437V50.8H233.593V51.2ZM238.237 51V70.8438H238.637V51H238.237ZM238.437 71.0437H238.906V70.6438H238.437V71.0437ZM239.054 70.978L257.023 51.1342L256.726 50.8658L238.757 70.7095L239.054 70.978ZM256.874 51.2H263.202V50.8H256.874V51.2ZM263.056 50.8637L246.259 68.9106L246.552 69.1831L263.349 51.1363L263.056 50.8637ZM246.247 69.1684L263.044 91.1215L263.361 90.8785L246.564 68.9253L246.247 69.1684ZM263.202 90.8H257.343V91.2H263.202V90.8ZM257.503 90.8802L243.597 72.2865L243.277 72.526L257.183 91.1198L257.503 90.8802ZM243.287 72.2734L238.287 77.8984L238.586 78.1641L243.586 72.5391L243.287 72.2734ZM238.237 78.0312V91H238.637V78.0312H238.237ZM238.437 90.8H233.593V91.2H238.437V90.8ZM308.962 91H308.762V91.2H308.962V91ZM308.962 51V50.8H308.762V51H308.962ZM333.103 51H333.303V50.8H333.103V51ZM333.103 55.2969V55.4969H333.303V55.2969H333.103ZM313.806 55.2969V55.0969H313.606V55.2969H313.806ZM313.806 68.8125H313.606V69.0125H313.806V68.8125ZM331.853 68.8125H332.053V68.6125H331.853V68.8125ZM331.853 73.1094V73.3094H332.053V73.1094H331.853ZM313.806 73.1094V72.9094H313.606V73.1094H313.806ZM313.806 86.7031H313.606V86.9031H313.806V86.7031ZM333.415 86.7031H333.615V86.5031H333.415V86.7031ZM333.415 91V91.2H333.615V91H333.415ZM309.162 91V51H308.762V91H309.162ZM308.962 51.2H333.103V50.8H308.962V51.2ZM332.903 51V55.2969H333.303V51H332.903ZM333.103 55.0969H313.806V55.4969H333.103V55.0969ZM313.606 55.2969V68.8125H314.006V55.2969H313.606ZM313.806 69.0125H331.853V68.6125H313.806V69.0125ZM331.653 68.8125V73.1094H332.053V68.8125H331.653ZM331.853 72.9094H313.806V73.3094H331.853V72.9094ZM313.606 73.1094V86.7031H314.006V73.1094H313.606ZM313.806 86.9031H333.415V86.5031H313.806V86.9031ZM333.215 86.7031V91H333.615V86.7031H333.215ZM333.415 90.8H308.962V91.2H333.415V90.8ZM379.136 55.2969H378.936V55.4969H379.136V55.2969ZM379.136 51V50.8H378.936V51H379.136ZM409.136 51H409.336V50.8H409.136V51ZM409.136 55.2969V55.4969H409.336V55.2969H409.136ZM396.557 55.2969V55.0969H396.357V55.2969H396.557ZM396.557 91V91.2H396.757V91H396.557ZM391.714 91H391.514V91.2H391.714V91ZM391.714 55.2969H391.914V55.0969H391.714V55.2969ZM379.336 55.2969V51H378.936V55.2969H379.336ZM379.136 51.2H409.136V50.8H379.136V51.2ZM408.936 51V55.2969H409.336V51H408.936ZM409.136 55.0969H396.557V55.4969H409.136V55.0969ZM396.357 55.2969V91H396.757V55.2969H396.357ZM396.557 90.8H391.714V91.2H396.557V90.8ZM391.914 91V55.2969H391.514V91H391.914ZM391.714 55.0969H379.136V55.4969H391.714V55.0969Z" fill="white" fill-opacity="0.25"/>
<mask id="mask1_530_358" style="mask-type:alpha" maskUnits="userSpaceOnUse" x="-37" y="12" width="106" height="103">
<path d="M12.4642 21.0822L-20.295 12.4606C-20.5373 12.3968 -20.7952 12.4345 -21.0091 12.565L-36.2708 21.877C-36.5934 22.0738 -36.763 22.4477 -36.6987 22.8201L-20.9457 113.967C-20.8477 114.534 -20.26 114.874 -19.7202 114.675L67.0923 82.7438C67.4469 82.6133 67.6859 82.2795 67.6951 81.9017L68.1286 64.0287C68.1347 63.7782 68.0384 63.536 67.862 63.358L44.0159 39.2986C43.9582 39.2404 43.8931 39.1902 43.8222 39.1493L12.6903 21.1753C12.6194 21.1343 12.5434 21.103 12.4642 21.0822Z" fill="#1A64BA"/>
</mask>
<g mask="url(#mask1_530_358)">
<path d="M-20.6743 12.3607L12.5835 21.1136L43.929 39.211L68.1381 63.6366L67.6799 82.5277L-20.7574 115.056L-36.8053 22.2031L-20.6743 12.3607Z" fill="url(#paint0_linear_530_358)"/>
<path d="M-20.7575 115.056L67.6799 82.5273L34.4221 73.7744L-20.7575 115.056Z" fill="white" fill-opacity="0.4"/>
<path d="M35.6345 53.5774L68.1382 63.6364L67.68 82.5274L34.4222 73.7746L35.6345 53.5774Z" fill="white" fill-opacity="0.5"/>
<path d="M34.4224 73.775L-12.5959 46.6289L-20.7572 115.057L34.4224 73.775Z" fill="white" fill-opacity="0.1"/>
<path d="M4.28878 35.4802L35.6343 53.5775L34.422 73.7746L-12.5963 46.6286L4.28878 35.4802Z" fill="white" fill-opacity="0.3"/>
<path d="M12.5843 21.1134L-20.6735 12.3606L4.28963 35.4801L35.6352 53.5775L68.1389 63.6364L43.9298 39.2108L12.5843 21.1134Z" fill="white" fill-opacity="0.1"/>
<path d="M-36.8044 22.2026L-20.7566 115.056L-12.5954 46.6283L-36.8044 22.2026Z" fill="black" fill-opacity="0.2"/>
<path d="M-20.6736 12.3603L4.28953 35.4799L-12.5955 46.6283L-36.8046 22.2027L-20.6736 12.3603Z" fill="black" fill-opacity="0.3"/>
<path d="M12.5814 20.6369L-20.1778 12.0152C-20.5413 11.9196 -20.9281 11.9761 -21.2489 12.1719L-36.5107 21.4839L-36.2708 21.877L-36.5107 21.4839C-36.9945 21.7791 -37.249 22.3399 -37.1524 22.8985L-21.3994 114.046C-21.2525 114.896 -20.3709 115.405 -19.5612 115.107L67.2513 83.176C67.7832 82.9803 68.1417 82.4795 68.1554 81.9129L68.589 64.0399C68.5981 63.6641 68.4537 63.3008 68.1891 63.0339L44.3429 38.9744C44.2565 38.8872 44.1588 38.8119 44.0525 38.7505L12.9206 20.7765C12.8142 20.7151 12.7002 20.6681 12.5814 20.6369Z" stroke="black" stroke-width="0.921001" stroke-linecap="round" stroke-linejoin="round"/>
</g>
<mask id="mask2_530_358" style="mask-type:alpha" maskUnits="userSpaceOnUse" x="100" y="41" width="24" height="23">
<path d="M114.045 45.0832L107.8 41.1454C107.588 41.0117 107.331 40.9702 107.087 41.0304L103.863 41.8283C103.496 41.9191 103.222 42.2247 103.172 42.5992L100.509 62.3302C100.432 62.9002 100.891 63.4004 101.466 63.3733L121.353 62.4338C121.731 62.416 122.059 62.1694 122.181 61.8118L123.256 58.669C123.337 58.4319 123.318 58.172 123.203 57.9492L119.822 51.3862C119.785 51.3135 119.738 51.246 119.682 51.1857L114.232 45.2399C114.177 45.1795 114.114 45.1268 114.045 45.0832Z" fill="#1A64BA"/>
</mask>
<g mask="url(#mask2_530_358)">
<path d="M107.468 40.9362L114.149 45.1489L119.766 51.2766L123.383 58.2979L121.979 62.4042L100.362 63.4254L103.255 41.9787L107.468 40.9362Z" fill="url(#paint1_linear_530_358)"/>
<path d="M100.361 63.4251L121.978 62.4039L115.298 58.1912L100.361 63.4251Z" fill="white" fill-opacity="0.4"/>
<path d="M116.957 53.8506L123.383 58.2974L121.979 62.4038L115.298 58.191L116.957 53.8506Z" fill="white" fill-opacity="0.5"/>
<path d="M115.298 58.1915L106.872 49L100.361 63.4255L115.298 58.1915Z" fill="white" fill-opacity="0.1"/>
<path d="M111.34 47.7233L116.957 53.851L115.297 58.1914L106.872 48.9999L111.34 47.7233Z" fill="white" fill-opacity="0.3"/>
<path d="M114.149 45.1488L107.468 40.936L111.34 47.7232L116.957 53.8509L123.383 58.2977L119.766 51.2764L114.149 45.1488Z" fill="white" fill-opacity="0.1"/>
<path d="M103.255 41.9785L100.362 63.4253L106.872 48.9998L103.255 41.9785Z" fill="black" fill-opacity="0.2"/>
<path d="M107.468 40.936L111.341 47.7232L106.872 48.9998L103.255 41.9785L107.468 40.936Z" fill="black" fill-opacity="0.3"/>
<path d="M114.29 44.6936L108.045 40.7558C107.727 40.5553 107.342 40.4931 106.977 40.5834L103.752 41.3813L103.863 41.8283L103.752 41.3813C103.202 41.5174 102.791 41.9759 102.715 42.5376L100.053 62.2686C99.9377 63.1236 100.626 63.874 101.487 63.8333L121.375 62.8938C121.941 62.867 122.433 62.4972 122.617 61.9608L123.692 58.818C123.813 58.4623 123.785 58.0725 123.613 57.7383L120.232 51.1754C120.175 51.0662 120.105 50.965 120.022 50.8745L114.572 44.9287C114.489 44.8382 114.394 44.7591 114.29 44.6936Z" stroke="black" stroke-width="0.921001" stroke-linecap="round" stroke-linejoin="round"/>
</g>
<mask id="mask3_530_358" style="mask-type:alpha" maskUnits="userSpaceOnUse" x="161" y="73" width="13" height="13">
<path d="M164.605 77.0231L162.212 79.4379C162.036 79.6159 161.939 79.858 161.945 80.1085L161.973 81.2413C161.982 81.6191 162.221 81.9529 162.576 82.0834L171.02 85.1892C171.559 85.3878 172.147 85.0485 172.245 84.4817L173.777 75.6161C173.842 75.2437 173.672 74.8698 173.35 74.673L172.382 74.0828C172.168 73.9523 171.91 73.9146 171.668 73.9783L168.38 74.8437C168.301 74.8645 168.225 74.8958 168.154 74.9367L164.799 76.8738C164.728 76.9148 164.663 76.965 164.605 77.0231Z" fill="#1A64BA"/>
</mask>
<g mask="url(#mask3_530_358)">
<path d="M161.936 79.7164L164.692 76.9355L168.261 74.8751L172.047 73.8785L173.884 74.9991L172.057 85.5708L161.988 81.8672L161.936 79.7164Z" fill="url(#paint2_linear_530_358)"/>
<path d="M172.057 85.5709L173.884 74.9993L171.127 77.7802L172.057 85.5709Z" fill="white" fill-opacity="0.4"/>
<path d="M169.205 76.5106L172.047 73.8784L173.884 74.9989L171.128 77.7799L169.205 76.5106Z" fill="white" fill-opacity="0.5"/>
<path d="M171.128 77.7802L165.774 80.8708L172.057 85.5709L171.128 77.7802Z" fill="white" fill-opacity="0.1"/>
<path d="M165.637 78.5713L169.205 76.5109L171.128 77.7802L165.775 80.8708L165.637 78.5713Z" fill="white" fill-opacity="0.3"/>
<path d="M164.692 76.9355L161.936 79.7164L165.636 78.5712L169.205 76.5107L172.047 73.8785L168.261 74.875L164.692 76.9355Z" fill="white" fill-opacity="0.1"/>
<path d="M161.988 81.8667L172.056 85.5702L165.774 80.8702L161.988 81.8667Z" fill="black" fill-opacity="0.2"/>
<path d="M161.935 79.7163L165.636 78.5711L165.774 80.8706L161.988 81.8671L161.935 79.7163Z" fill="black" fill-opacity="0.3"/>
<path d="M164.278 76.6989L161.885 79.1137C161.62 79.3807 161.476 79.7439 161.485 80.1197L161.512 81.2525C161.526 81.8191 161.885 82.3199 162.417 82.5156L170.861 85.6214C171.67 85.9193 172.552 85.4103 172.699 84.5601L174.231 75.6945C174.328 75.136 174.073 74.5751 173.589 74.2799L172.622 73.6897C172.301 73.4939 171.914 73.4373 171.551 73.533L168.263 74.3983C168.144 74.4296 168.03 74.4765 167.924 74.5379L164.569 76.475C164.462 76.5364 164.365 76.6117 164.278 76.6989L164.605 77.0231L164.278 76.6989Z" stroke="black" stroke-width="0.921001" stroke-linecap="round" stroke-linejoin="round"/>
</g>
<mask id="mask4_530_358" style="mask-type:alpha" maskUnits="userSpaceOnUse" x="333" y="-27" width="94" height="84">
<path d="M358.6 -13.1933L335.949 3.13099C335.745 3.2775 335.611 3.50052 335.575 3.74862L333.521 18.2102C333.467 18.5843 333.648 18.953 333.976 19.14L400.173 56.8526C400.673 57.1373 401.308 56.8993 401.498 56.3564L426.655 -15.5553C426.78 -15.912 426.674 -16.3087 426.389 -16.556L415.342 -26.113C415.153 -26.277 414.905 -26.3566 414.655 -26.3336L386.852 -23.7697C386.771 -23.7622 386.69 -23.7438 386.614 -23.7151L358.816 -13.3087C358.739 -13.28 358.667 -13.2412 358.6 -13.1933Z" fill="#1A64BA"/>
</mask>
<g mask="url(#mask4_530_358)">
<path d="M335.63 3.3603L358.7 -13.2654L386.729 -23.7583L415.046 -26.3696L426.862 -16.1463L401.133 57.3996L333.432 18.8301L335.63 3.3603Z" fill="url(#paint3_linear_530_358)"/>
<path d="M401.133 57.3995L426.862 -16.1464L403.792 0.479322L401.133 57.3995Z" fill="white" fill-opacity="0.4"/>
<path d="M391.539 -10.9119L415.046 -26.3697L426.862 -16.1464L403.792 0.479337L391.539 -10.9119Z" fill="white" fill-opacity="0.5"/>
<path d="M403.792 0.479372L361.749 16.2188L401.133 57.3996L403.792 0.479372Z" fill="white" fill-opacity="0.1"/>
<path d="M363.509 -0.419128L391.538 -10.912L403.792 0.479152L361.749 16.2185L363.509 -0.419128Z" fill="white" fill-opacity="0.3"/>
<path d="M358.7 -13.2652L335.631 3.36049L363.51 -0.418678L391.539 -10.9116L415.046 -26.3695L386.729 -23.7582L358.7 -13.2652Z" fill="white" fill-opacity="0.1"/>
<path d="M333.433 18.8298L401.133 57.3994L361.749 16.2185L333.433 18.8298Z" fill="black" fill-opacity="0.2"/>
<path d="M335.631 3.35992L363.51 -0.41924L361.749 16.2184L333.433 18.8297L335.631 3.35992Z" fill="black" fill-opacity="0.3"/>
<path d="M358.331 -13.5669L335.679 2.7574C335.374 2.97716 335.172 3.3117 335.119 3.68385L333.065 18.1454C332.985 18.7066 333.256 19.2596 333.749 19.5401L399.945 57.2527C400.694 57.6797 401.648 57.3228 401.933 56.5085L427.09 -15.4033C427.277 -15.9383 427.119 -16.5333 426.69 -16.9042L415.643 -26.4613C415.359 -26.7072 414.987 -26.8267 414.613 -26.7922L386.81 -24.2282C386.687 -24.217 386.567 -24.1894 386.452 -24.1464L358.654 -13.7399C358.539 -13.6969 358.431 -13.6387 358.331 -13.5669Z" stroke="black" stroke-width="0.921001" stroke-linecap="round" stroke-linejoin="round"/>
</g>
</g>
<defs>
<linearGradient id="paint0_linear_530_358" x1="-9.58369" y1="-1.00623" x2="-20.7574" y2="115.056" gradientUnits="userSpaceOnUse">
<stop offset="0.244792" stop-color="#F971BA"/>
<stop offset="1" stop-color="#8932F7"/>
</linearGradient>
<linearGradient id="paint1_linear_530_358" x1="110.82" y1="38.7737" x2="100.362" y2="63.4254" gradientUnits="userSpaceOnUse">
<stop offset="0.244792" stop-color="#F971BA"/>
<stop offset="1" stop-color="#8932F7"/>
</linearGradient>
<linearGradient id="paint2_linear_530_358" x1="161.249" y1="77.862" x2="172.057" y2="85.5708" gradientUnits="userSpaceOnUse">
<stop offset="0.244792" stop-color="#F971BA"/>
<stop offset="1" stop-color="#8932F7"/>
</linearGradient>
<linearGradient id="paint3_linear_530_358" x1="332.929" y1="-10.7452" x2="401.133" y2="57.3996" gradientUnits="userSpaceOnUse">
<stop offset="0.244792" stop-color="#F971BA"/>
<stop offset="1" stop-color="#8932F7"/>
</linearGradient>
</defs>
</svg>
