<svg width="22" height="22" viewBox="0 0 22 22" fill="none" xmlns="http://www.w3.org/2000/svg">
<path fill-rule="evenodd" clip-rule="evenodd" d="M11.3354 2.07918C11.1243 1.97361 10.8757 1.97361 10.6646 2.07918L2.4146 6.20418C2.16052 6.33122 2.00001 6.59092 2.00001 6.875C2.00001 7.15908 2.16052 7.41878 2.4146 7.54582L10.6646 11.6708C10.8757 11.7764 11.1243 11.7764 11.3354 11.6708L19.5854 7.54582C19.8395 7.41878 20 7.15908 20 6.875C20 6.59092 19.8395 6.33122 19.5854 6.20418L11.3354 2.07918ZM2.0944 15.2191C2.29556 14.857 2.75216 14.7266 3.11425 14.9277L11 19.3087L18.8858 14.9277C19.2479 14.7266 19.7045 14.857 19.9056 15.2191C20.1068 15.5812 19.9763 16.0378 19.6142 16.239L11.3642 20.8223C11.1377 20.9481 10.8623 20.9481 10.6358 20.8223L2.38578 16.239C2.02369 16.0378 1.89324 15.5812 2.0944 15.2191ZM3.11425 10.3444C2.75216 10.1432 2.29556 10.2737 2.0944 10.6358C1.89324 10.9979 2.02369 11.4545 2.38578 11.6556L10.6358 16.239C10.8623 16.3648 11.1377 16.3648 11.3642 16.239L19.6142 11.6556C19.9763 11.4545 20.1068 10.9979 19.9056 10.6358C19.7045 10.2737 19.2479 10.1432 18.8858 10.3444L11 14.7254L3.11425 10.3444Z" fill="#1B1B22"/>
</svg>
