<svg width="20" height="20" viewBox="0 0 20 20" fill="none" xmlns="http://www.w3.org/2000/svg">
<path fill-rule="evenodd" clip-rule="evenodd" d="M8.83922 2.23307C9.07884 1.9281 9.44521 1.75003 9.83306 1.75003C11.7216 1.75003 12.7996 3.90605 11.6665 5.41686L10.7041 6.70001C10.699 6.70685 10.6974 6.71079 10.6971 6.71174C10.6967 6.71286 10.6965 6.7136 10.6965 6.71452C10.6963 6.71693 10.6967 6.72379 10.7011 6.73272C10.7056 6.74166 10.7109 6.74608 10.7129 6.74739C10.7137 6.74789 10.7143 6.74823 10.7155 6.74857C10.7164 6.74885 10.7205 6.74999 10.7291 6.74999H13.4014H13.4359C14.1051 6.74998 14.6567 6.74997 15.0989 6.78909C15.5543 6.82938 15.9814 6.91655 16.3634 7.14801C16.9391 7.49686 17.367 8.04478 17.5657 8.68796C17.6976 9.11472 17.6786 9.5502 17.6073 10.0017C17.538 10.4402 17.4042 10.9754 17.2419 11.6246L17.2419 11.6246L17.2335 11.658L16.6365 14.0461L16.5972 14.2036L16.5972 14.2036C16.3111 15.3502 16.1139 16.1406 15.6593 16.7477C15.2597 17.2814 14.7249 17.699 14.1101 17.9573C13.4109 18.251 12.5964 18.2506 11.4146 18.25H11.4146L11.2522 18.25H8.19992H8.16946H8.16928C7.63521 18.25 7.18943 18.25 6.82525 18.2203C6.44536 18.1892 6.08871 18.1221 5.75144 17.9503C5.234 17.6866 4.8133 17.2659 4.54965 16.7485C4.3778 16.4112 4.31069 16.0545 4.27966 15.6747C4.2499 15.3104 4.24991 14.8646 4.24992 14.3304L4.24992 14.3V9.99349L4.2499 9.92222C4.24977 9.37511 4.24968 8.99624 4.32451 8.62668C4.3907 8.29983 4.50018 7.98327 4.65008 7.68538C4.81956 7.34855 5.05371 7.0507 5.39183 6.62058L5.43587 6.56455L8.83922 2.23307ZM2.83325 8.33336C2.83325 7.91915 2.49747 7.58336 2.08325 7.58336C1.66904 7.58336 1.33325 7.91915 1.33325 8.33336V17.5C1.33325 17.9142 1.66904 18.25 2.08325 18.25C2.49747 18.25 2.83325 17.9142 2.83325 17.5L2.83325 8.33336Z" fill="#ADE7AC"/>
</svg>
