<svg xmlns="http://www.w3.org/2000/svg" width="11" height="11" viewBox="0 0 11 11" fill="none">
<path fill-rule="evenodd" clip-rule="evenodd" d="M0 5.00173C0 2.23951 2.23922 0 5.00153 0C7.76385 0 10.0031 2.23951 10.0031 5.00173C10.0031 7.76396 7.76385 10.0035 5.00153 10.0035C2.23922 10.0035 0 7.76396 0 5.00173ZM5.23872 5.85353L5.56453 3.08405C5.60419 2.74691 5.34077 2.45068 5.00131 2.45068C4.66184 2.45068 4.39842 2.74691 4.43809 3.08405L4.76389 5.85353C4.77806 5.97392 4.88009 6.06465 5.00131 6.06465C5.12253 6.06465 5.22456 5.97392 5.23872 5.85353ZM5.42665 7.12781C5.42665 7.36263 5.2363 7.55298 5.0015 7.55298C4.76669 7.55298 4.57634 7.36263 4.57634 7.12781C4.57634 6.89299 4.76669 6.70264 5.0015 6.70264C5.2363 6.70264 5.42665 6.89299 5.42665 7.12781Z" fill="white"/>
</svg>