<svg width="24" height="24" viewBox="0 0 24 24" fill="none" xmlns="http://www.w3.org/2000/svg">
<path fill-rule="evenodd" clip-rule="evenodd" d="M1.25 12C1.25 6.06294 6.06294 1.25 12 1.25C17.9371 1.25 22.75 6.06294 22.75 12C22.75 14.573 21.8453 16.9359 20.3377 18.7862C19.2614 16.3921 17.2239 14.5962 14.8983 13.7635C16.0245 12.895 16.75 11.5322 16.75 10C16.75 7.37665 14.6233 5.25 12 5.25C9.37661 5.25 7.24996 7.37665 7.24996 10C7.24996 11.5322 7.97542 12.895 9.10159 13.7635C6.776 14.5962 4.73858 16.392 3.66225 18.7861C2.15471 16.9358 1.25 14.573 1.25 12ZM4.79763 19.9806C6.70315 21.7012 9.22964 22.75 12 22.75C14.7703 22.75 17.2968 21.7013 19.2023 19.9807C18.0823 16.8273 15.0211 14.75 12 14.75C8.97881 14.75 5.91765 16.8273 4.79763 19.9806ZM12 6.75C10.205 6.75 8.74996 8.20507 8.74996 10C8.74996 11.7949 10.205 13.25 12 13.25C13.7949 13.25 15.25 11.7949 15.25 10C15.25 8.20507 13.7949 6.75 12 6.75Z" fill="#EDEEF0"/>
</svg>
